<svg id="Icons" height="512" viewBox="0 0 74 74" width="512" xmlns="http://www.w3.org/2000/svg"><path d="m59.267 67.439-54.085-48.683a9.61 9.61 0 0 1 -.366-13.94 9.611 9.611 0 0 1 13.94.366l48.683 54.085zm-52.747-50.169 52.674 47.414 5.489-5.489-47.413-52.675a7.612 7.612 0 1 0 -10.75 10.75z"/><path d="m61.468 72a3.96 3.96 0 0 1 -2.809-1.162 3.979 3.979 0 0 1 0-5.618l6.56-6.559a3.972 3.972 0 0 1 5.618 5.618l-6.56 6.559a3.961 3.961 0 0 1 -2.809 1.162zm-1.395-2.576a1.976 1.976 0 0 0 2.79 0l6.56-6.559a1.973 1.973 0 0 0 -2.79-2.79l-6.56 6.559a1.976 1.976 0 0 0 0 2.788z"/><path d="m50.918 55.231h10.632v2h-10.632z" transform="matrix(.707 -.707 .707 .707 -23.291 56.233)"/><path d="m45.356 50.043h11.38v2h-11.38z" transform="matrix(.707 -.707 .707 .707 -21.142 51.045)"/></svg>