<?xml version="1.0" encoding="utf-8"?>
<!-- Generator: Adobe Illustrator 24.2.1, SVG Export Plug-In . SVG Version: 6.00 Build 0)  -->
<svg version="1.1" id="Lager_1" xmlns="http://www.w3.org/2000/svg" xmlns:xlink="http://www.w3.org/1999/xlink" x="0px" y="0px"
	 viewBox="0 0 100 100" style="enable-background:new 0 0 100 100;" xml:space="preserve">
<style type="text/css">
	.st0{fill:#575A53;stroke:#000000;stroke-width:2;stroke-linecap:round;stroke-linejoin:round;stroke-miterlimit:10;}
	.st1{fill:#81A4AF;stroke:#000000;stroke-width:2;stroke-linecap:round;stroke-linejoin:round;stroke-miterlimit:10;}
	.st2{fill:#E8C7A7;stroke:#000000;stroke-width:2;stroke-linecap:round;stroke-linejoin:round;stroke-miterlimit:10;}
	.st3{fill:#A8979F;stroke:#000000;stroke-width:2;stroke-linecap:round;stroke-linejoin:round;stroke-miterlimit:10;}
	.st4{fill:#5F858E;stroke:#000000;stroke-width:2;stroke-linecap:round;stroke-linejoin:round;stroke-miterlimit:10;}
	.st5{fill:#F2D0AA;stroke:#000000;stroke-width:2;stroke-linecap:round;stroke-linejoin:round;stroke-miterlimit:10;}
	.st6{fill:#232323;stroke:#000000;stroke-width:2;stroke-linecap:round;stroke-linejoin:round;stroke-miterlimit:10;}
</style>
<polygon class="st0" points="31.47,31.65 19.03,53.17 79.21,53.17 67.37,32.5 "/>
<path class="st1" d="M30.09,59.24c0,0-19.3,9.05-21.38,12.48c-2.08,3.43-4.54,17.39-4.54,17.39L95,88.02c0,0-3.28-12.27-5.36-16.55
	c-2.08-4.28-21.47-12.23-21.47-12.23H30.09z"/>
<polygon class="st2" points="38.65,47.5 59.91,47.5 60.8,70.99 37.8,69.77 "/>
<path class="st3" d="M39.79,59.74c0-0.25,3.63,4.61,9.81,4.61s9.01-4.4,9.01-3.96c0,0.44-8.53,24.3-8.53,24.3
	S39.79,59.99,39.79,59.74z"/>
<path class="st4" d="M36.46,42.01l-13.03,8.05L35.85,67.2h-8.76l22.75,18.15c0,0-10.28-25.59-10.34-27.02
	c-0.06-1.43,1.3-10.43,1.3-10.43L36.46,42.01z"/>
<path class="st4" d="M61.48,42.01l13.62,8.05L62.68,67.2h8.76l-21.6,18.15c0,0,9.14-24.64,9.19-27.02c0.05-2.38-1.3-10.43-1.3-10.43
	L61.48,42.01z"/>
<path class="st5" d="M32.97,35.11c0,6.36,4.76,23.37,15.96,23.37s16.02-16.75,16.02-23.07s-16.57-14.3-16.57-14.3
	S32.97,28.75,32.97,35.11z"/>
<rect x="38.48" y="38.66" width="20.91" height="2.27"/>
<circle cx="42.41" cy="40.22" r="6.29"/>
<circle cx="55.59" cy="40.22" r="6.29"/>
<path class="st1" d="M32.08,26.68c0,0-14.37,1.34-14.37,5.23c2.8,9.07,59.64,9.07,63.17-0.61c0-3.53-14.58-4.63-14.58-4.63H32.08z"
	/>
<path class="st1" d="M31.47,29.24c2.38-13.51,9.13-18.26,9.13-18.26l8.76,2.8l8.89-2.8c0,0,8.15,4.5,8.15,18.26
	C56.9,34.6,41.08,33.74,31.47,29.24z"/>
<line class="st6" x1="50.08" y1="84.7" x2="50.08" y2="88.56"/>
</svg>
