<?xml version="1.0" encoding="iso-8859-1"?>
<!-- Generator: Adobe Illustrator 18.0.0, SVG Export Plug-In . SVG Version: 6.00 Build 0)  -->
<!DOCTYPE svg PUBLIC "-//W3C//DTD SVG 1.1//EN" "http://www.w3.org/Graphics/SVG/1.1/DTD/svg11.dtd">
<svg version="1.1" id="Capa_1" xmlns="http://www.w3.org/2000/svg" xmlns:xlink="http://www.w3.org/1999/xlink" x="0px" y="0px"
	 viewBox="0 0 447.053 447.053" style="enable-background:new 0 0 447.053 447.053;" xml:space="preserve">
<g>
	<path d="M401.649,45.396C372.375,16.122,333.453,0,292.053,0c-41.4,0-80.323,16.122-109.597,45.396
		c-56.186,56.186-60.122,145.126-11.831,205.915l-40.735,40.735c-2.444-0.559-4.966-0.856-7.535-0.856
		c-8.948,0-17.36,3.484-23.687,9.812L9.804,389.867c-13.061,13.061-13.061,34.313,0,47.374c6.327,6.327,14.739,9.812,23.687,9.812
		s17.36-3.484,23.687-9.812l88.865-88.865c8.455-8.455,11.428-20.34,8.938-31.215l40.747-40.747
		c28.099,22.325,62.21,33.498,96.326,33.498c39.689,0,79.38-15.108,109.596-45.323c29.274-29.274,45.396-68.196,45.396-109.596
		C447.045,113.593,430.923,74.67,401.649,45.396z M136.851,310.195c6.385,6.385,7.653,15.962,3.837,23.634l-27.475-27.475
		c2.807-1.403,5.914-2.163,9.144-2.163C127.831,304.191,132.979,306.323,136.851,310.195z M23.592,394.464l79.673-79.673
		l28.989,28.99l-79.673,79.673L23.592,394.464z M18.996,428.049c-6.385-6.385-7.653-15.962-3.837-23.634l27.475,27.475
		c-2.807,1.403-5.914,2.163-9.144,2.163C28.015,434.053,22.868,431.921,18.996,428.049z M149.157,304.6
		c-0.941-1.253-1.974-2.458-3.114-3.598c-1.135-1.135-2.34-2.175-3.6-3.123l36.708-36.708c1.083,1.151,2.18,2.293,3.305,3.418
		c1.123,1.123,2.263,2.218,3.412,3.3L149.157,304.6z M392.457,255.396c-55.363,55.363-145.446,55.363-200.809,0
		c-55.363-55.363-55.363-145.445,0-200.808C218.468,27.77,254.125,13,292.053,13c37.927,0,73.585,14.77,100.404,41.589
		c26.818,26.819,41.588,62.476,41.588,100.404C434.045,192.92,419.276,228.578,392.457,255.396z"/>
	<path d="M375.789,71.256c-22.366-22.367-52.104-34.685-83.735-34.685c-31.632,0-61.37,12.318-83.736,34.685
		c-22.367,22.367-34.685,52.105-34.685,83.736s12.318,61.369,34.685,83.736c22.366,22.367,52.104,34.685,83.736,34.685
		c31.631,0,61.369-12.318,83.735-34.685c22.367-22.367,34.686-52.105,34.686-83.736S398.156,93.623,375.789,71.256z
		 M366.596,229.536c-19.911,19.911-46.385,30.877-74.543,30.877c-28.159,0-54.633-10.966-74.544-30.877
		c-19.912-19.911-30.877-46.385-30.877-74.544c0-0.756,0.012-1.51,0.028-2.263c10.02,27.211,36.205,46.671,66.85,46.671
		c15.002,0,29.352-4.611,41.499-13.334c2.915-2.094,3.582-6.155,1.487-9.071c-2.093-2.915-6.153-3.582-9.071-1.488
		c-9.923,7.127-21.651,10.894-33.915,10.894c-32.097,0-58.21-26.113-58.21-58.21v-15.187c2.988-6.88,6.722-13.44,11.16-19.582
		v34.769c0,4.968,0.775,9.865,2.304,14.555c0.895,2.744,3.441,4.488,6.179,4.488c0.667,0,1.347-0.104,2.016-0.322
		c3.413-1.112,5.278-4.781,4.166-8.194c-1.104-3.388-1.664-6.929-1.664-10.527V78.548c3.534-3.36,7.265-6.443,11.16-9.248v26.109
		c0,3.59,2.91,6.5,6.5,6.5s6.5-2.91,6.5-6.5V62.621c0-0.462,0.042-0.918,0.105-1.369c5.037-2.604,10.272-4.792,15.664-6.542
		c2.476,1.847,4.01,4.758,4.01,7.911v65.57c0,5.459-4.437,9.9-9.89,9.9s-9.89-4.441-9.89-9.9v-11.782c0-3.59-2.91-6.5-6.5-6.5
		s-6.5,2.91-6.5,6.5v11.782c0,12.627,10.269,22.9,22.89,22.9s22.89-10.273,22.89-22.9v-65.57c0-4.079-1.103-7.99-3.066-11.397
		c3.852-0.686,7.76-1.159,11.71-1.417c1.648,4.051,2.516,8.413,2.516,12.814c0,3.59,2.91,6.5,6.5,6.5s6.5-2.91,6.5-6.5
		c0-4.351-0.63-8.671-1.811-12.833c3.996,0.249,7.95,0.716,11.846,1.403c0.746,3.733,1.125,7.562,1.125,11.43v65.57
		c0,10.676-2.913,21.112-8.423,30.18c-1.864,3.068-0.889,7.066,2.18,8.93c1.055,0.641,2.219,0.946,3.369,0.946
		c2.195,0,4.338-1.112,5.561-3.125c6.747-11.103,10.313-23.874,10.313-36.931v-65.57c0-2.704-0.161-5.392-0.461-8.056
		c15.797,5.047,30.273,13.82,42.337,25.884c19.912,19.911,30.878,46.385,30.878,74.544S386.508,209.625,366.596,229.536z"/>
	<path d="M294.06,93.409c-3.59,0-6.5,2.91-6.5,6.5v28.281c0,18.775-15.274,34.05-34.05,34.05c-9.548,0-18.726-4.065-25.178-11.153
		c-2.416-2.655-6.528-2.848-9.182-0.431c-2.655,2.417-2.848,6.528-0.431,9.182c8.91,9.788,21.591,15.402,34.791,15.402
		c25.943,0,47.05-21.106,47.05-47.05V99.909C300.56,96.32,297.65,93.409,294.06,93.409z"/>
</g>
<g>
</g>
<g>
</g>
<g>
</g>
<g>
</g>
<g>
</g>
<g>
</g>
<g>
</g>
<g>
</g>
<g>
</g>
<g>
</g>
<g>
</g>
<g>
</g>
<g>
</g>
<g>
</g>
<g>
</g>
</svg>
