<svg id="Capa_1" enable-background="new 0 0 511.885 511.885" height="512" viewBox="0 0 511.885 511.885" width="512" xmlns="http://www.w3.org/2000/svg"><path d="m474.804 234.275c-6.992-6.902-15.419-11.8-24.602-14.418 2.997-11.944 5.224-24.341 6.48-36.623 3.817-37.344-1.409-70.587-14.715-93.607-14.801-25.605-39.502-39.14-71.433-39.14-6.835 0-13.641.813-20.23 2.416-7.824 1.902-15.704-1.583-19.606-8.678-3.253-5.914-7.217-11.447-11.782-16.445-2.794-3.059-7.538-3.273-10.596-.48-3.059 2.794-3.273 7.537-.48 10.596 3.765 4.122 7.034 8.685 9.715 13.56 7.1 12.907 22.027 19.495 36.296 16.022 5.429-1.32 11.042-1.99 16.684-1.99 26.644 0 46.309 10.647 58.447 31.646 11.739 20.31 16.278 50.346 12.779 84.575-1.237 12.105-3.464 24.298-6.466 35.968-.585-.009-1.168-.027-1.755-.018-31.37.407-56.892 26.605-56.892 58.398v9.147c-4.277-.751-10.045-1.633-17.21-2.629-13.735-1.91-28.928-3.737-35.417-4.519-1.396-.168-2.356-.283-2.763-.335-17.963-2.283-41.616-4.92-65.276-5.046-10.292-.048-20.173.366-29.385 1.257-6.514.629-12.212 1.201-17.418 1.75-.04.005-.079.009-.118.014l-34.814 4.229c-.048.006-.095.012-.143.019-14.218 2.005-27.011 3.988-38.864 6.02v-9.907c0-31.793-25.522-57.991-56.893-58.398-.258-.004-.514-.005-.771-.005-.327 0-.651.018-.978.024-3.014-11.718-5.252-23.96-6.486-36.109-3.475-34.196 1.078-64.197 12.819-84.478 12.14-20.971 31.795-31.603 58.421-31.603 5.642 0 11.254.67 16.683 1.99 14.269 3.473 29.197-3.114 36.297-16.022 12.368-22.487 35.977-36.456 61.61-36.456 9.02 0 17.796 1.682 26.086 4.999 3.849 1.543 8.211-.33 9.75-4.177 1.539-3.846-.331-8.21-4.177-9.749-10.069-4.03-20.721-6.073-31.659-6.073-31.104 0-59.749 16.946-74.754 44.225-3.903 7.096-11.784 10.584-19.608 8.679-6.588-1.604-13.395-2.416-20.229-2.416-.002 0 .001 0-.001 0-31.905 0-56.599 13.518-71.401 39.087-13.31 22.99-18.552 56.199-14.761 93.509 1.253 12.334 3.489 24.79 6.5 36.79-9.183 2.618-17.615 7.502-24.606 14.403-11.062 10.919-17.154 25.491-17.154 41.033 0 24.076 15.002 45.465 37.129 53.884v58.041c0 14.736 9.811 27.218 23.242 31.272v20.309c0 9.267 7.539 16.806 16.806 16.806h5.823v41.35c0 8.225 6.691 14.915 14.915 14.915h18.01c6.949 0 12.875-4.68 14.498-11.411l4.648-16.307c1.135-3.983-1.174-8.133-5.157-9.269-3.98-1.131-8.133 1.173-9.269 5.157l-4.697 16.479c-.03.106-.063.235-.09.351h-17.857v-41.267h39.545 196.939 39.545v41.265h-17.857c-.027-.117-.058-.234-.091-.351l-4.697-16.479c-1.136-3.984-5.288-6.289-9.269-5.157-3.983 1.136-6.292 5.285-5.157 9.269l4.648 16.307c1.622 6.731 7.548 11.411 14.498 11.411h18.01c8.224 0 14.915-6.69 14.915-14.915v-41.35h5.823c9.267 0 16.806-7.539 16.806-16.806v-20.309c13.431-4.054 23.242-16.536 23.242-31.272v-52.379c0-3.284 1.856-6.312 4.73-7.714 19.984-9.752 32.398-29.612 32.398-51.832.001-15.541-6.091-30.114-17.153-41.033zm-339.565 75.32v-8.414c12.385-2.155 25.831-4.252 40.887-6.375l34.682-4.214c5.146-.542 10.783-1.108 17.229-1.73 8.709-.841 18.08-1.238 27.863-1.188 22.854.121 45.922 2.696 63.464 4.927.422.053 1.417.173 2.865.348 33.926 4.08 48.322 6.31 54.417 7.482v14.11 13.239c0 3.579-2.912 6.49-6.491 6.49h-228.426c-3.579 0-6.491-2.911-6.491-6.49v-18.185zm281.348 129.219c0 .996-.81 1.806-1.806 1.806h-304.354-13.323c-.996 0-1.806-.81-1.806-1.806v-18.918h321.289zm36.395-125.155c-7.99 3.897-13.153 12.217-13.153 21.195v52.379c0 9.739-7.924 17.663-17.663 17.663h-332.447c-9.739 0-17.663-7.924-17.663-17.663v-63.487c0-3.394-2.279-6.364-5.556-7.244-18.59-4.987-31.573-21.927-31.573-41.193 0-11.498 4.507-22.28 12.691-30.358 8.047-7.943 18.667-12.297 29.962-12.297.19 0 .381.001.571.003 23.207.302 42.087 19.771 42.087 43.4v18.839 16.732 16.153c0 11.85 9.641 21.49 21.491 21.49h228.426c11.85 0 21.491-9.641 21.491-21.49v-15.568-17.318-18.839c0-23.629 18.88-43.099 42.087-43.4.191-.002.38-.003.571-.003 11.294 0 21.916 4.354 29.962 12.297 8.184 8.078 12.691 18.86 12.691 30.358.001 16.44-9.187 31.135-23.975 38.351z"/><circle cx="177.218" cy="181.482" r="13.991"/><circle cx="334.667" cy="181.482" r="13.991"/><circle cx="255.942" cy="123.742" r="13.991"/></svg>