<?xml version="1.0" encoding="iso-8859-1"?>
<!-- Generator: Adobe Illustrator 19.0.0, SVG Export Plug-In . SVG Version: 6.00 Build 0)  -->
<svg version="1.1" id="Capa_1" xmlns="http://www.w3.org/2000/svg" xmlns:xlink="http://www.w3.org/1999/xlink" x="0px" y="0px"
	 viewBox="0 0 512 512" style="enable-background:new 0 0 512 512;" xml:space="preserve">
<g>
	<g>
		<path d="M512,145v-15c0-19.564-7.493-38.999-21.099-54.723c-13.606-15.725-31.762-25.934-51.123-28.745L271,22.021V0h-30v22.021
			L72.222,46.532C52.86,49.344,34.705,59.553,21.099,75.277S0,110.436,0,130v15h241v135H60v30h30v60H49.855
			c-0.871-44.231-5.565-68.89-10.121-92.807C34.729,250.91,30,226.084,30,175H0c0,53.916,5.218,81.313,10.265,107.807
			C15.271,309.09,20,333.916,20,385v127h30V400h40v112h30V400h30v112h30V370h-60v-60h121v202h30V310h121v60h-60v142h30V400h30v112
			h30V400h40v112h30V385c0-51.084,4.729-75.91,9.735-102.193C506.781,256.313,512,228.916,512,175h-30
			c0,51.084-4.729,75.91-9.735,102.193c-4.555,23.917-9.249,48.575-10.12,92.807H422v-60h30v-30H271V145H512z M32.409,114.999
			c6.254-19.484,23.935-35.846,44.124-38.777L256,50.157l179.468,26.064c20.188,2.932,37.87,19.293,44.124,38.778H32.409z"/>
	</g>
</g>
<g>
</g>
<g>
</g>
<g>
</g>
<g>
</g>
<g>
</g>
<g>
</g>
<g>
</g>
<g>
</g>
<g>
</g>
<g>
</g>
<g>
</g>
<g>
</g>
<g>
</g>
<g>
</g>
<g>
</g>
</svg>
