<svg id="Capa_1" enable-background="new 0 0 512 512" height="512" viewBox="0 0 512 512" width="512" xmlns="http://www.w3.org/2000/svg"><g><path d="m398.625 290.836c-14.628-23.326-34.702-42.677-58.421-56.409v-91.427h24.264v-30h-36.325l18.384-113h-181.053l18.385 113h-36.325v30h24.264v91.427c-23.719 13.732-43.793 33.084-58.421 56.409-16.755 26.718-25.612 57.583-25.612 89.261 0 49.503 21.677 96.282 59.474 128.341l4.198 3.561h209.128l4.198-3.561c37.796-32.059 59.474-78.838 59.474-128.342-.001-31.676-8.858-62.542-25.612-89.26zm-49.231 191.164h-186.788c-28.564-26.188-44.842-63.025-44.842-101.902 0-52.385 29.051-99.658 75.816-123.371l8.216-4.166v-109.561h108.407v50.254c-6.616-3.562-14.177-5.588-22.203-5.588-25.916 0-47 21.084-47 47s21.084 47 47 47c16.039 0 30.22-8.08 38.705-20.378 41.884 24.893 67.531 69.593 67.531 118.81 0 38.877-16.279 75.715-44.842 101.902zm-148.645-452h40.252v44.666h30v-44.666h40.251l-13.504 83h-83.495zm104.251 204.667c0 9.374-7.626 17-17 17s-17-7.626-17-17 7.626-17 17-17c9.375 0 17 7.625 17 17z"/><path d="m344.814 318.168-6.187-8.035-9.762 2.748c-29.2 8.216-48.33 2.735-68.583-3.07-23.524-6.742-54.949-16.311-91.347 5.77l-2.23 3.249c-12.391 18.047-18.941 39.233-18.941 61.269 0 23.784 7.994 47.246 22.508 66.063l4.503 5.839h162.448l4.503-5.839c14.516-18.818 22.509-42.28 22.509-66.063.001-21.614-7.985-47.08-19.421-61.931zm-22.755 103.832h-132.118c-7.891-12.462-12.177-27.095-12.177-41.902 0-14.625 3.977-28.719 11.537-41.004 25.191-11.198 41.861-6.421 62.716-.443 20.005 5.733 42.405 12.153 73.802 5.814 4.632 9.57 8.416 23.176 8.416 35.634.001 14.806-4.285 29.439-12.176 41.901z"/></g></svg>