<svg id="Capa_1" enable-background="new 0 0 512 512" height="512" viewBox="0 0 512 512" width="512" xmlns="http://www.w3.org/2000/svg"><g><g><path d="m499.425 114.435c-.008-.019-.017-.037-.025-.056-23.475-52.685-75.894-86.722-133.563-86.722-28.09 0-55.375 7.991-78.905 23.109-19.591 12.587-35.823 29.574-47.458 49.556-25.748-21.333-58.577-33.681-93.311-33.681-57.69 0-110.127 34.064-133.589 86.782-.005.012-.011.025-.016.037-8.333 18.715-12.558 38.681-12.558 59.344 0 20.65 4.22 40.604 12.542 59.309.01.024.021.048.031.072 20.912 46.987 64.319 79.335 114.284 85.641 7.374 28.97 22.417 55.536 44.107 77.226 26.133 26.133 59.245 42.629 95.756 47.705 7.641 1.062 15.341 1.587 23.039 1.587 27.875 0 55.673-6.887 80.14-20.079 4.861-2.621 6.677-8.687 4.056-13.548s-8.686-6.677-13.548-4.056c-57.206 30.845-129.293 20.256-175.3-25.75-28.024-28.024-43.458-65.285-43.458-104.917s15.434-76.894 43.458-104.918c57.853-57.853 151.983-57.853 209.836 0 46.187 46.187 56.668 118.472 25.488 175.785-2.639 4.852-.846 10.924 4.005 13.563 4.852 2.64 10.924.847 13.563-4.005 17.005-31.258 23.694-67.989 18.833-103.427-.196-1.43-.41-2.855-.641-4.275 18.686-14.717 33.581-33.821 43.235-55.512 8.343-18.727 12.574-38.707 12.574-59.386 0-20.678-4.231-40.658-12.575-59.384zm-353.262-27.794c44.458 0 85.305 23.439 107.965 60.848h-215.931c22.661-37.408 63.507-60.848 107.966-60.848zm-107.99 191.478h87.727c-2.809 12.28-4.252 24.966-4.252 37.873 0 7.079.434 14.091 1.289 21.006-35.214-6.357-66.085-27.858-84.764-58.879zm132.792-81.188c-17.62 17.62-30.854 38.457-39.153 61.187h-103.432c-5.564-14.415-8.38-29.627-8.38-45.314 0-15.688 2.816-30.9 8.38-45.314h182.118c-14.365 7.716-27.677 17.586-39.533 29.441zm310.189 28.137c-7.037 15.811-17.301 30.031-30.04 41.725-7.958-26.254-22.225-50.058-42.029-69.863-31.802-31.802-74.085-49.316-119.06-49.316-4.286 0-8.546.16-12.776.475-6.098-12.341-13.819-23.577-22.833-33.496 21.772-40.834 64.931-66.937 111.422-66.937 49.729 0 94.937 29.324 115.232 74.723.054.128.111.256.17.382 7.14 16.094 10.76 33.271 10.76 51.058 0 17.856-3.648 35.097-10.846 51.249z"/><g><path d="m401.82 438.172c-4.296 0-8.203-2.85-9.52-6.939-1.277-3.963.115-8.465 3.434-10.992 3.24-2.466 7.726-2.714 11.224-.637 3.536 2.099 5.442 6.325 4.693 10.365-.871 4.69-5.052 8.203-9.831 8.203z"/></g><path d="m312.35 307.979c3.17-4.466 5.035-9.919 5.035-15.8 0-15.086-12.274-27.36-27.36-27.36s-27.36 12.273-27.36 27.36c0 5.881 1.865 11.334 5.035 15.8-7.039 6.201-11.486 15.277-11.486 25.372 0 18.644 15.168 33.812 33.812 33.812s33.812-15.168 33.812-33.812c-.002-10.095-4.449-19.171-11.488-25.372zm-29.685-15.799c0-4.058 3.302-7.36 7.36-7.36 4.059 0 7.36 3.302 7.36 7.36 0 4.059-3.302 7.36-7.36 7.36-4.059 0-7.36-3.302-7.36-7.36zm7.359 54.984c-7.616 0-13.812-6.196-13.812-13.812s6.196-13.812 13.812-13.812 13.812 6.196 13.812 13.812-6.195 13.812-13.812 13.812z"/><g><path d="m290.024 409.176c-51.382 0-93.185-41.802-93.185-93.185s41.802-93.185 93.185-93.185 93.185 41.802 93.185 93.185-41.802 93.185-93.185 93.185zm0-166.369c-40.354 0-73.185 32.831-73.185 73.185s32.831 73.185 73.185 73.185 73.185-32.831 73.185-73.185-32.83-73.185-73.185-73.185z"/></g></g></g></svg>